<svg id="Layer_1" data-name="Layer 1" xmlns="http://www.w3.org/2000/svg" viewBox="0 0 81.16 81.16"><title>houdini_white</title><path d="M24.69,93.33v14.76H37.62A29.3,29.3,0,0,1,24.69,93.33Z" transform="translate(-24.69 -26.94)" style="fill:#fff"/><path d="M78.94,77.93c0-13.65-11-26.78-27.43-27.35-11.66-.4-20.73,3.87-26.82,10.19V75c4.14-12,15.54-17.44,25.09-17.34C61.72,57.8,70.92,66.8,71,77c0,9.73-4,16.88-15,18.65-6,1-15.38-2.55-15-11.61.22-4.67,3.85-7.31,8-7.12-4.08,5.47,1.32,9.47,5.14,8.66a8.49,8.49,0,0,0,6.65-8.46c0-3.44-3.24-9-11.27-8.79-9.93.23-16.18,7.38-16.4,16.22C32.88,95.64,43.29,103,54,103.09,69.66,103.29,79,93,78.94,77.93Z" transform="translate(-24.69 -26.94)" style="fill:#fff"/><path d="M24.69,26.94V50.29a43.45,43.45,0,0,1,26.82-8.82c23,0,37.65,16.1,37.64,36.4,0,14.1-6.58,24.71-16.89,30.22h33.59V26.94Z" transform="translate(-24.69 -26.94)" style="fill:#fff"/></svg>